<svg width="1272" height="446pt" viewBox="0 0 954 446" xmlns="http://www.w3.org/2000/svg"><g class="graph"><path fill="#fff" stroke="transparent" d="M0 446V0h954v446H0z"/><g class="cluster"><path fill="none" stroke="transparent" d="M12 434V136h328v298H12z"/><text text-anchor="middle" x="60.355" y="-274.8" font-family="Helvetica,sans-Serif" font-size="14" fill="#4d4d4d" transform="translate(4 442)">Python Server</text></g><g class="cluster"><path fill="#91a4a8" stroke="transparent" d="M22 424v-90h308v90H22z"/><text text-anchor="middle" x="96.225" y="-84" font-family="Helvetica,sans-Serif" font-size="10" fill="#edebdf" transform="translate(4 442)">PerspectiveManager - Thread 1</text></g><g class="cluster"><path fill="#91a4a8" stroke="transparent" d="M22 324V184h308v140H22z"/><text text-anchor="middle" x="96.225" y="-234" font-family="Helvetica,sans-Serif" font-size="10" fill="#edebdf" transform="translate(4 442)">PerspectiveManager - Thread 2</text></g><g class="cluster"><path fill="#cadee1" stroke="#cadee1" d="M348 434V12h594v422H348z"/><text text-anchor="middle" x="377.672" y="-398.8" font-family="Helvetica,sans-Serif" font-size="14" fill="#4d4d4d" transform="translate(4 442)">Browser</text></g><g class="cluster"><path fill="#2d4c68" stroke="transparent" d="M358 258V60h308v198H358z"/><text text-anchor="middle" x="392.386" y="-358" font-family="Helvetica,sans-Serif" font-size="10" fill="#edebdf" transform="translate(4 442)">WebWorker 1</text></g><g class="cluster"><path fill="#2d4c68" stroke="transparent" d="M358 362v-90h308v90H358z"/><text text-anchor="middle" x="392.386" y="-146" font-family="Helvetica,sans-Serif" font-size="10" fill="#edebdf" transform="translate(4 442)">WebWorker 2</text></g><g class="cluster"><path fill="transparent" stroke="transparent" d="M682 424V60h250v364H682z"/><text text-anchor="middle" x="713.981" y="-358" font-family="Helvetica,sans-Serif" font-size="10" fill="#4d4d4d" transform="translate(4 442)">Main Thread</text></g><g class="node"><path fill="#fff" stroke="#b3b3b3" d="M104 376H32v36h72v-36z"/><text text-anchor="middle" x="64" y="-45.6" font-family="monospace" font-size="8" transform="translate(4 442)">table(arrow)</text></g><g class="node"><path fill="#fff" stroke="#b3b3b3" d="M320 374H140v40h180v-40z"/><text x="144" y="-57.6" font-family="monospace" font-size="8" transform="translate(4 442)">view({</text><text x="144" y="-49.6" font-family="monospace" font-size="8" transform="translate(4 442)">row_pivots:&apos;[&quot;State&quot;]</text><text x="144" y="-41.6" font-family="monospace" font-size="8" transform="translate(4 442)">column_pivots:&apos;[&quot;Segment&quot;]&apos;</text><text x="144" y="-33.6" font-family="monospace" font-size="8" transform="translate(4 442)">})</text></g><g class="edge" stroke="#e6e2da"><path fill="none" d="M104.356 394h27.342"/><path fill="#e6e2da" d="M131.875 391.2l8 2.8-8 2.8v-5.6z"/></g><g class="node"><path fill="#fff" stroke="#b3b3b3" d="M922 374H692v40h230v-40z"/><text x="696" y="-57.6" font-family="monospace" font-size="8" transform="translate(4 442)">&lt;perspective-viewer</text><text x="696" y="-49.6" font-family="monospace" font-size="8" transform="translate(4 442)">view=&quot;heatmap&quot;</text><text x="696" y="-41.6" font-family="monospace" font-size="8" transform="translate(4 442)">row-pivots=&apos;[&quot;State&quot;]</text><text x="696" y="-33.6" font-family="monospace" font-size="8" transform="translate(4 442)">column-pivots=&apos;[&quot;Segment&quot;]&apos;&gt;</text></g><g class="edge" fill="none" stroke="#000"><path stroke-dasharray="5,2" d="M320.156 394h363.625"/><path d="M683.882 391.2l8 2.8-8 2.8v-5.6z"/></g><g class="node"><path fill="#fff" stroke="#b3b3b3" d="M104 251H32v36h72v-36z"/><text text-anchor="middle" x="64" y="-170.6" font-family="monospace" font-size="8" transform="translate(4 442)">table(df)</text></g><g class="node"><path fill="#fff" stroke="#b3b3b3" d="M320 278H140v36h180v-36z"/><text x="144" y="-151.6" font-family="monospace" font-size="8" transform="translate(4 442)">view({</text><text x="144" y="-143.6" font-family="monospace" font-size="8" transform="translate(4 442)">row_pivot: [&quot;State&quot;]]</text><text x="144" y="-135.6" font-family="monospace" font-size="8" transform="translate(4 442)">})</text></g><g class="edge" stroke="#e6e2da"><path fill="none" d="M104.356 275.06l27.342 4.556"/><path fill="#e6e2da" d="M132.444 276.902l7.43 4.077-8.351 1.447.92-5.524z"/></g><g class="node"><path fill="#fff" stroke="#b3b3b3" d="M320 224H140v36h180v-36z"/><text x="144" y="-205.6" font-family="monospace" font-size="8" transform="translate(4 442)">view({</text><text x="144" y="-197.6" font-family="monospace" font-size="8" transform="translate(4 442)">row_pivot: [&quot;City&quot;]]</text><text x="144" y="-189.6" font-family="monospace" font-size="8" transform="translate(4 442)">})</text></g><g class="edge" stroke="#e6e2da"><path fill="none" d="M104.356 262.94l27.342-4.556"/><path fill="#e6e2da" d="M131.523 255.574l8.352 1.447-7.431 4.077-.921-5.524z"/></g><g class="node"><path fill="#fff" stroke="#b3b3b3" d="M440 313h-72v36h72v-36z"/><text text-anchor="middle" x="400" y="-108.6" font-family="monospace" font-size="8" transform="translate(4 442)">table(...)</text></g><g class="edge" fill="none" stroke="#000"><path stroke-dasharray="5,2" d="M319.548 314.013l40.473 8.14"/><path d="M360.651 319.424l7.291 4.323-8.395 1.167 1.104-5.49z"/></g><g class="node"><path fill="#fff" stroke="#b3b3b3" d="M440 128h-72v36h72v-36z"/><text text-anchor="middle" x="400" y="-293.6" font-family="monospace" font-size="8" transform="translate(4 442)">table(csv)</text></g><g class="node"><path fill="#fff" stroke="#b3b3b3" d="M656 154H476v40h180v-40z"/><text x="480" y="-277.6" font-family="monospace" font-size="8" transform="translate(4 442)">view({</text><text x="480" y="-269.6" font-family="monospace" font-size="8" transform="translate(4 442)">row_pivot: [&quot;Category&quot;]</text><text x="480" y="-261.6" font-family="monospace" font-size="8" transform="translate(4 442)">filter: [[&quot;State&quot;,&quot;==&quot;,&quot;Texas&quot;]]</text><text x="480" y="-253.6" font-family="monospace" font-size="8" transform="translate(4 442)">})</text></g><g class="edge" stroke="#e6e2da"><path fill="none" d="M440.356 152.284l27.632 4.776"/><path fill="#e6e2da" d="M468.468 154.301l7.406 4.122-8.36 1.396.954-5.518z"/></g><g class="node"><path fill="#fff" stroke="#b3b3b3" d="M656 100H476v36h180v-36z"/><text x="480" y="-329.6" font-family="monospace" font-size="8" transform="translate(4 442)">view({</text><text x="480" y="-321.6" font-family="monospace" font-size="8" transform="translate(4 442)">row_pivot: [&quot;Sub-Category&quot;]</text><text x="480" y="-313.6" font-family="monospace" font-size="8" transform="translate(4 442)">})</text></g><g class="edge" stroke="#e6e2da"><path fill="none" d="M440.356 139.716l27.632-4.776"/><path fill="#e6e2da" d="M467.514 132.18l8.36 1.397-7.406 4.122-.954-5.518z"/></g><g class="node"><path fill="#fff" stroke="#b3b3b3" d="M440 212h-72v36h72v-36z"/><text text-anchor="middle" x="400" y="-209.6" font-family="monospace" font-size="8" transform="translate(4 442)">table(json)</text></g><g class="node"><path fill="#fff" stroke="#b3b3b3" d="M656 212H476v36h180v-36z"/><text x="480" y="-209.6" font-family="monospace" font-size="8" transform="translate(4 442)">view()</text></g><g class="edge" stroke="#e6e2da"><path fill="none" d="M440.356 230h27.342"/><path fill="#e6e2da" d="M467.875 227.2l8 2.8-8 2.8v-5.6z"/></g><g class="node"><path fill="#fff" stroke="#b3b3b3" d="M922 154H692v36h230v-36z"/><text x="696" y="-275.6" font-family="monospace" font-size="8" transform="translate(4 442)">&lt;perspective-viewer</text><text x="696" y="-267.6" font-family="monospace" font-size="8" transform="translate(4 442)">view=&quot;y_bar&quot; row-pivots=&apos;[&quot;Category&quot;]&apos;</text><text x="696" y="-259.6" font-family="monospace" font-size="8" transform="translate(4 442)">filters=&apos;[[&quot;State&quot;,&quot;==&quot;,&quot;Texas&quot;]]&apos;&gt;</text></g><g class="edge" fill="none" stroke="#000"><path stroke-dasharray="5,2" d="M656.082 173.252c8.996-.074 18.235-.15 27.496-.228"/><path d="M683.694 170.223l8.023 2.734-7.976 2.866-.047-5.6z"/></g><g class="node"><path fill="#fff" stroke="#b3b3b3" d="M922 100H692v36h230v-36z"/><text x="696" y="-329.6" font-family="monospace" font-size="8" transform="translate(4 442)">&lt;perspective-viewer</text><text x="696" y="-321.6" font-family="monospace" font-size="8" transform="translate(4 442)">view=&quot;xy_scatter&quot;</text><text x="696" y="-313.6" font-family="monospace" font-size="8" transform="translate(4 442)">row-pivots=&apos;[&quot;Sub-Category&quot;]&apos;&gt;</text></g><g class="edge" fill="none" stroke="#000"><path stroke-dasharray="5,2" d="M656.082 118h27.496"/><path d="M683.717 115.2l8 2.8-8 2.8v-5.6z"/></g><g class="node"><path fill="#fff" stroke="#b3b3b3" d="M922 208H692v36h230v-36z"/><text x="696" y="-217.6" font-family="monospace" font-size="8" transform="translate(4 442)">&lt;perspective-viewer</text><text x="696" y="-209.6" font-family="monospace" font-size="8" transform="translate(4 442)">view=&quot;grid&quot;&gt;</text></g><g class="edge" fill="none" stroke="#000"><path stroke-dasharray="5,2" d="M656.082 228.505l27.496-.457"/><path d="M683.672 225.247l8.045 2.666-7.952 2.933-.093-5.6z"/></g><g class="node"><path fill="#fff" stroke="#b3b3b3" d="M656 312H476v40h180v-40z"/><text x="480" y="-119.6" font-family="monospace" font-size="8" transform="translate(4 442)">view({</text><text x="480" y="-111.6" font-family="monospace" font-size="8" transform="translate(4 442)">row_pivot: [&quot;Category&quot;]</text><text x="480" y="-103.6" font-family="monospace" font-size="8" transform="translate(4 442)">filter: [[&quot;State&quot;,&quot;==&quot;,&quot;Texas&quot;]]</text><text x="480" y="-95.6" font-family="monospace" font-size="8" transform="translate(4 442)">})</text></g><g class="edge" stroke="#e6e2da"><path fill="none" d="M440.356 331.224l27.342.17"/><path fill="#e6e2da" d="M467.892 328.594l7.983 2.85-8.018 2.75.035-5.6z"/></g><g class="node"><path fill="#fff" stroke="#b3b3b3" d="M922 316H692v40h230v-40z"/><text x="696" y="-115.6" font-family="monospace" font-size="8" transform="translate(4 442)">&lt;perspective-viewer</text><text x="696" y="-107.6" font-family="monospace" font-size="8" transform="translate(4 442)">view=&quot;heatmap&quot;</text><text x="696" y="-99.6" font-family="monospace" font-size="8" transform="translate(4 442)">row-pivots=&apos;[&quot;State&quot;]</text><text x="696" y="-91.6" font-family="monospace" font-size="8" transform="translate(4 442)">column-pivots=&apos;[&quot;Segment&quot;]&apos;&gt;</text></g><g class="edge" fill="none" stroke="#000"><path stroke-dasharray="5,2" d="M656.082 333.495l27.496.456"/><path d="M683.765 331.154l7.952 2.933-8.045 2.666.093-5.599z"/></g></g></svg>